<svg width="21" height="20" viewBox="0 0 21 20" fill="none" xmlns="http://www.w3.org/2000/svg">
<path d="M19.2555 0.625H1.14297C0.707384 0.625 0.355469 0.960156 0.355469 1.375V18.625C0.355469 19.0398 0.707384 19.375 1.14297 19.375H19.2555C19.6911 19.375 20.043 19.0398 20.043 18.625V1.375C20.043 0.960156 19.6911 0.625 19.2555 0.625ZM18.468 17.875H13.9374V12.1141H16.4968L16.8807 9.28516H13.9374V7.47812C13.9374 6.65781 14.1761 6.1 15.4091 6.1H16.9816V3.56875C16.7084 3.53359 15.7757 3.45625 14.688 3.45625C12.419 3.45625 10.8662 4.77578 10.8662 7.19687V9.28281H8.30186V12.1117H10.8686V17.875H1.93047V2.125H18.468V17.875Z" fill="white"/>
</svg>
