<svg width="20" height="19" viewBox="0 0 20 19" fill="none" xmlns="http://www.w3.org/2000/svg">
<path fill-rule="evenodd" clip-rule="evenodd" d="M10.3245 0.400024C7.72997 0.400024 7.40436 0.410524 6.38492 0.454624C5.36768 0.498724 4.67311 0.652725 4.06526 0.877424C3.42781 1.10608 2.8504 1.46441 2.3733 1.92742C1.88704 2.38201 1.51079 2.93217 1.2708 3.53952C1.03487 4.11772 0.873901 4.77922 0.826861 5.74802C0.780556 6.71892 0.769531 7.02902 0.769531 9.50002C0.769531 11.971 0.780556 12.2811 0.826861 13.252C0.873166 14.2208 1.03487 14.8823 1.2708 15.4605C1.51556 16.059 1.84189 16.5665 2.3733 17.0726C2.8504 17.5356 3.42781 17.894 4.06526 18.1226C4.67311 18.3466 5.36768 18.5006 6.38492 18.5454C7.40436 18.5895 7.72997 18.6 10.3245 18.6C12.9191 18.6 13.2447 18.5895 14.2641 18.5454C15.2813 18.5013 15.9759 18.3473 16.583 18.1226C17.2208 17.8941 17.7984 17.5357 18.2757 17.0726C18.762 16.618 19.1382 16.0679 19.3782 15.4605C19.6134 14.8823 19.7751 14.2208 19.8222 13.252C19.8685 12.2811 19.8795 11.971 19.8795 9.50002C19.8795 7.02902 19.8685 6.71892 19.8222 5.74802C19.7759 4.77922 19.6142 4.11772 19.3775 3.53952C19.1377 2.93224 18.7617 2.38208 18.2757 1.92742C17.7984 1.4643 17.2208 1.10597 16.583 0.877424C15.9759 0.653425 15.2813 0.499424 14.2641 0.454624C13.2447 0.410524 12.9191 0.400024 10.3245 0.400024ZM10.3245 2.03942C12.8757 2.03942 13.1778 2.04922 14.1855 2.09262C15.1167 2.13322 15.6231 2.28162 15.9597 2.40622C16.4059 2.57142 16.7241 2.76812 17.0586 3.08662C17.393 3.40512 17.5995 3.70822 17.773 4.13312C17.9038 4.45372 18.0596 4.93532 18.1023 5.82292C18.1478 6.78192 18.1581 7.07032 18.1581 9.50002C18.1581 11.9297 18.1478 12.2174 18.1023 13.1771C18.0596 14.0647 17.9038 14.5463 17.773 14.8669C17.6199 15.2622 17.3758 15.6198 17.0586 15.9134C16.7503 16.2156 16.3748 16.4481 15.9597 16.5938C15.6231 16.7184 15.1167 16.8668 14.1855 16.9074C13.1785 16.9508 12.8757 16.9606 10.3245 16.9606C7.77333 16.9606 7.47051 16.9508 6.46357 16.9074C5.53159 16.8668 5.02591 16.7184 4.68928 16.5938C4.27422 16.4481 3.89874 16.2156 3.59046 15.9134C3.27325 15.6198 3.02914 15.2622 2.87604 14.8669C2.74521 14.5463 2.58939 14.0647 2.54676 13.1771C2.50119 12.2181 2.4909 11.9297 2.4909 9.50002C2.4909 7.07032 2.50119 6.78262 2.54676 5.82292C2.58939 4.93532 2.74521 4.45372 2.87604 4.13312C3.0495 3.70822 3.25603 3.40512 3.59046 3.08662C3.89876 2.78449 4.27423 2.55199 4.68928 2.40622C5.02591 2.28162 5.53159 2.13322 6.46357 2.09262C7.47051 2.04922 7.77333 2.03942 10.3245 2.03942Z" fill="white"/>
<path fill-rule="evenodd" clip-rule="evenodd" d="M10.3247 4.60005C8.96014 4.60005 7.65149 5.1163 6.68662 6.03523C5.72175 6.95415 5.17969 8.20049 5.17969 9.50005C5.17969 10.7996 5.72175 12.0459 6.68662 12.9649C7.65149 13.8838 8.96014 14.4 10.3247 14.4C11.6892 14.4 12.9979 13.8838 13.9627 12.9649C14.9276 12.0459 15.4697 10.7996 15.4697 9.50005C15.4697 8.20049 14.9276 6.95415 13.9627 6.03523C12.9979 5.1163 11.6892 4.60005 10.3247 4.60005ZM10.3247 12.65C9.44748 12.65 8.6062 12.3182 7.98593 11.7274C7.36565 11.1367 7.01718 10.3355 7.01718 9.50005C7.01718 8.66462 7.36565 7.8634 7.98593 7.27266C8.6062 6.68192 9.44748 6.35005 10.3247 6.35005C11.2019 6.35005 12.0432 6.68192 12.6634 7.27266C13.2837 7.8634 13.6322 8.66462 13.6322 9.50005C13.6322 10.3355 13.2837 11.1367 12.6634 11.7274C12.0432 12.3182 11.2019 12.65 10.3247 12.65ZM16.7192 4.67005C16.7192 4.81713 16.6888 4.96277 16.6297 5.09865C16.5706 5.23454 16.4839 5.35801 16.3747 5.46201C16.2655 5.56601 16.1359 5.64851 15.9932 5.70479C15.8505 5.76108 15.6976 5.79005 15.5432 5.79005C15.3887 5.79005 15.2358 5.76108 15.0931 5.70479C14.9505 5.64851 14.8208 5.56601 14.7116 5.46201C14.6024 5.35801 14.5158 5.23454 14.4567 5.09865C14.3976 4.96277 14.3672 4.81713 14.3672 4.67005C14.3672 4.37301 14.4911 4.08813 14.7116 3.87809C14.9322 3.66805 15.2313 3.55005 15.5432 3.55005C15.8551 3.55005 16.1542 3.66805 16.3747 3.87809C16.5953 4.08813 16.7192 4.37301 16.7192 4.67005Z" fill="white"/>
</svg>
