<svg width="42" height="42" viewBox="0 0 42 42" fill="none" xmlns="http://www.w3.org/2000/svg">
<path d="M21 32.375C22.4525 32.375 23.625 31.2025 23.625 29.75H18.375C18.375 31.2025 19.5475 32.375 21 32.375ZM21 3.5C11.34 3.5 3.5 11.34 3.5 21C3.5 30.66 11.34 38.5 21 38.5C30.66 38.5 38.5 30.66 38.5 21C38.5 11.34 30.66 3.5 21 3.5ZM21 35C13.2825 35 7 28.7175 7 21C7 13.2825 13.2825 7 21 7C28.7175 7 35 13.2825 35 21C35 28.7175 28.7175 35 21 35ZM28 19.9325C28 16.24 26.1975 13.0725 22.75 12.25V11.375C22.75 10.3775 21.9975 9.625 21 9.625C20.0025 9.625 19.25 10.3775 19.25 11.375V12.25C15.8025 13.0725 14 16.2225 14 19.9325V24.5H12.25V28H29.75V24.5H28V19.9325ZM24.5 24.5H17.5V19.25C17.5 17.325 19.075 15.75 21 15.75C22.925 15.75 24.5 17.325 24.5 19.25V24.5Z" fill="#603E98"/>
</svg>
