<svg width="36" height="36" viewBox="0 0 36 36" fill="none" xmlns="http://www.w3.org/2000/svg">
<path d="M18 0.5C8.34 0.5 0.5 8.34 0.5 18C0.5 27.66 8.34 35.5 18 35.5C27.66 35.5 35.5 27.66 35.5 18C35.5 8.34 27.66 0.5 18 0.5ZM9.8625 29.375C12.155 27.73 14.955 26.75 18 26.75C21.045 26.75 23.845 27.73 26.1375 29.375C23.845 31.02 21.045 32 18 32C14.955 32 12.155 31.02 9.8625 29.375ZM28.745 26.96C25.7875 24.65 22.06 23.25 18 23.25C13.94 23.25 10.2125 24.65 7.255 26.96C5.225 24.5275 4 21.4125 4 18C4 10.265 10.265 4 18 4C25.735 4 32 10.265 32 18C32 21.4125 30.775 24.5275 28.745 26.96Z" fill="#603E98"/>
<path d="M18 7.5C14.6225 7.5 11.875 10.2475 11.875 13.625C11.875 17.0025 14.6225 19.75 18 19.75C21.3775 19.75 24.125 17.0025 24.125 13.625C24.125 10.2475 21.3775 7.5 18 7.5ZM18 16.25C16.5475 16.25 15.375 15.0775 15.375 13.625C15.375 12.1725 16.5475 11 18 11C19.4525 11 20.625 12.1725 20.625 13.625C20.625 15.0775 19.4525 16.25 18 16.25Z" fill="#603E98"/>
</svg>
