<svg width="22" height="18" viewBox="0 0 22 18" fill="none" xmlns="http://www.w3.org/2000/svg">
<path d="M15.1675 2.54999C14.3697 2.54986 13.6036 2.84797 13.0342 3.3802C12.4648 3.91243 12.1374 4.63626 12.1225 5.39599L12.0931 6.97099C12.0916 7.05564 12.0712 7.13901 12.0334 7.21563C11.9956 7.29225 11.9411 7.36038 11.8737 7.41554C11.8063 7.4707 11.7273 7.51164 11.6421 7.53568C11.5569 7.55971 11.4672 7.56629 11.3791 7.55499L9.73904 7.34199C7.5834 7.06199 5.517 6.11699 3.53355 4.54399C2.9067 7.85399 4.13205 10.147 7.0857 11.916L8.92004 13.014C9.00705 13.0661 9.07934 13.1377 9.13062 13.2226C9.1819 13.3074 9.2106 13.4029 9.21423 13.5007C9.21785 13.5986 9.19629 13.6957 9.15141 13.7838C9.10654 13.8719 9.03973 13.9482 8.95679 14.006L7.2852 15.17C8.27954 15.23 9.22349 15.188 10.0068 15.04C14.9607 14.098 18.2545 10.548 18.2545 4.69199C18.2545 4.21399 17.1909 2.54999 15.1675 2.54999ZM10.0225 5.35999C10.0409 4.39604 10.3574 3.45866 10.9324 2.66521C11.5075 1.87177 12.3155 1.25751 13.2554 0.899359C14.1953 0.541207 15.2252 0.455072 16.2162 0.65174C17.2072 0.848407 18.1153 1.31914 18.8268 2.00499C19.5733 1.99999 20.2086 2.17999 21.6282 1.35899C21.2775 2.99899 21.1032 3.71199 20.3545 4.69099C20.3545 12.332 15.4227 16.049 10.4173 17C6.987 17.652 1.99636 16.581 0.568359 15.158C1.29601 15.105 4.257 14.802 5.9685 13.608C4.5195 12.698 -1.24289 9.46799 2.54446 0.785992C4.3221 2.76299 6.12495 4.10799 7.95194 4.82299C9.16679 5.29799 9.46604 5.28799 10.0236 5.36099L10.0225 5.35999Z" fill="white"/>
</svg>
